<svg width="1095" height="155" viewBox="0 0 1095 155" fill="none" xmlns="http://www.w3.org/2000/svg">
<path d="M1013.09 147.656H1006.05V7.03125H1013.09V147.656ZM999.023 147.656H991.992V7.03125H999.023V147.656ZM984.961 147.656H977.93V7.03125H984.961V147.656ZM1027.15 112.5H1094.43V119.531H1027.15V126.562H1094.43V133.594H1027.15V140.625H1094.43V147.656H1020.12V7.03125H1094.43V14.0625H1027.15V21.0938H1094.43V28.125H1027.15V35.1562H1094.43V42.1875H1027.15V59.668H1090.53V66.6992H1027.15V73.7305H1090.53V80.7617H1027.15V87.793H1090.53V94.8242H1027.15V112.5Z" fill="black"/>
<path d="M885.059 45.9961H892.09V147.656H885.059V45.9961ZM856.934 14.0625V7.03125H962.402V14.0625H856.934ZM856.934 28.125V21.0938H962.402V28.125H856.934ZM856.934 42.1875V35.1562H962.402V42.1875H856.934ZM927.246 45.9961H934.277V147.656H927.246V45.9961ZM913.184 45.9961H920.215V147.656H913.184V45.9961ZM899.121 45.9961H906.152V147.656H899.121V45.9961Z" fill="black"/>
<path d="M767.285 45.9961H774.316V147.656H767.285V45.9961ZM739.16 14.0625V7.03125H844.629V14.0625H739.16ZM739.16 28.125V21.0938H844.629V28.125H739.16ZM739.16 42.1875V35.1562H844.629V42.1875H739.16ZM809.473 45.9961H816.504V147.656H809.473V45.9961ZM795.41 45.9961H802.441V147.656H795.41V45.9961ZM781.348 45.9961H788.379V147.656H781.348V45.9961Z" fill="black"/>
<path d="M644.141 147.656H637.109V7.03125H644.141V147.656ZM630.078 147.656H623.047V7.03125H630.078V147.656ZM616.016 147.656H608.984V7.03125H616.016V147.656ZM658.203 112.5H725.488V119.531H658.203V126.562H725.488V133.594H658.203V140.625H725.488V147.656H651.172V7.03125H725.488V14.0625H658.203V21.0938H725.488V28.125H658.203V35.1562H725.488V42.1875H658.203V59.668H721.582V66.6992H658.203V73.7305H721.582V80.7617H658.203V87.793H721.582V94.8242H658.203V112.5Z" fill="black"/>
<path d="M492.383 7.03125H499.414V147.656H492.383V7.03125ZM534.57 7.03125H541.602V112.5H593.457V119.531H541.602V126.562H593.457V133.594H541.602V140.625H593.457V147.656H534.57V7.03125ZM520.508 7.03125H527.539V147.656H520.508V7.03125ZM506.445 7.03125H513.477V147.656H506.445V7.03125Z" fill="black"/>
<path d="M425.488 85.3516V7.03125H432.52V85.3516C432.52 92.7734 429.655 99.1536 423.926 104.492C418.262 109.831 411.426 112.5 403.418 112.5C395.41 112.5 388.542 109.831 382.812 104.492C377.148 99.1536 374.316 92.7734 374.316 85.3516V7.03125H381.348V85.3516C381.348 90.8854 383.496 95.638 387.793 99.6094C392.155 103.516 397.363 105.469 403.418 105.469C409.473 105.469 414.648 103.516 418.945 99.6094C423.307 95.638 425.488 90.8854 425.488 85.3516ZM439.551 85.3516V7.03125H446.582V85.3516C446.582 96.7448 442.35 106.478 433.887 114.551C425.423 122.559 415.267 126.562 403.418 126.562C391.569 126.562 381.413 122.559 372.949 114.551C364.486 106.478 360.254 96.7448 360.254 85.3516V7.03125H367.285V85.3516C367.285 94.7917 370.801 102.865 377.832 109.57C384.928 116.211 393.457 119.531 403.418 119.531C413.314 119.531 421.81 116.211 428.906 109.57C436.003 102.865 439.551 94.7917 439.551 85.3516ZM453.613 85.3516V7.03125H460.645V85.3516C460.645 95.3125 458.073 104.557 452.93 113.086C447.786 121.549 440.82 128.255 432.031 133.203C423.242 138.151 413.704 140.625 403.418 140.625C393.132 140.625 383.594 138.151 374.805 133.203C366.016 128.255 359.049 121.549 353.906 113.086C348.763 104.557 346.191 95.3125 346.191 85.3516V7.03125H353.223V85.3516C353.223 94.0104 355.469 102.051 359.961 109.473C364.453 116.895 370.54 122.786 378.223 127.148C385.97 131.445 394.368 133.594 403.418 133.594C412.467 133.594 420.833 131.445 428.516 127.148C436.263 122.786 442.383 116.895 446.875 109.473C451.367 102.051 453.613 94.0104 453.613 85.3516ZM467.676 85.3516V7.03125H474.707V85.3516C474.707 94.7266 472.819 103.711 469.043 112.305C465.267 120.833 460.189 128.19 453.809 134.375C447.428 140.56 439.844 145.475 431.055 149.121C422.266 152.832 413.053 154.688 403.418 154.688C393.783 154.688 384.57 152.832 375.781 149.121C366.992 145.475 359.408 140.56 353.027 134.375C346.647 128.19 341.569 120.833 337.793 112.305C334.017 103.711 332.129 94.7266 332.129 85.3516V7.03125H339.16V85.3516C339.16 96.5495 342.025 106.934 347.754 116.504C353.548 126.074 361.361 133.659 371.191 139.258C381.087 144.857 391.829 147.656 403.418 147.656C415.007 147.656 425.716 144.857 435.547 139.258C445.443 133.659 453.255 126.074 458.984 116.504C464.779 106.934 467.676 96.5495 467.676 85.3516Z" fill="black"/>
<path d="M220.117 57.5195C214.648 62.9883 211.914 69.5964 211.914 77.3438C211.914 85.0911 214.648 91.7318 220.117 97.2656C225.651 102.734 232.292 105.469 240.039 105.469C247.786 105.469 254.395 102.734 259.863 97.2656C265.397 91.7318 268.164 85.0911 268.164 77.3438C268.164 69.5964 265.397 62.9883 259.863 57.5195C254.395 51.9857 247.786 49.2188 240.039 49.2188C232.292 49.2188 225.651 51.9857 220.117 57.5195ZM215.137 102.246C208.301 95.3451 204.883 87.0443 204.883 77.3438C204.883 67.6432 208.301 59.375 215.137 52.5391C222.038 45.638 230.339 42.1875 240.039 42.1875C249.74 42.1875 258.008 45.638 264.844 52.5391C271.745 59.375 275.195 67.6432 275.195 77.3438C275.195 87.0443 271.745 95.3451 264.844 102.246C258.008 109.082 249.74 112.5 240.039 112.5C230.339 112.5 222.038 109.082 215.137 102.246ZM210.156 47.5586C201.953 55.8268 197.852 65.7552 197.852 77.3438C197.852 88.9323 201.953 98.8607 210.156 107.129C218.424 115.397 228.385 119.531 240.039 119.531C251.693 119.531 261.621 115.397 269.824 107.129C278.092 98.8607 282.227 88.9323 282.227 77.3438C282.227 65.7552 278.092 55.8268 269.824 47.5586C261.621 39.2904 251.693 35.1562 240.039 35.1562C228.385 35.1562 218.424 39.2904 210.156 47.5586ZM197.363 102.051C193.001 94.4987 190.82 86.263 190.82 77.3438C190.82 68.4245 193.001 60.1888 197.363 52.6367C201.79 45.0846 207.78 39.1276 215.332 34.7656C222.884 30.3385 231.12 28.125 240.039 28.125C248.958 28.125 257.194 30.3385 264.746 34.7656C272.298 39.1276 278.255 45.0846 282.617 52.6367C287.044 60.1888 289.258 68.4245 289.258 77.3438C289.258 86.263 287.044 94.4987 282.617 102.051C278.255 109.603 272.298 115.592 264.746 120.02C257.194 124.382 248.958 126.562 240.039 126.562C231.12 126.562 222.884 124.382 215.332 120.02C207.78 115.592 201.79 109.603 197.363 102.051ZM188.184 55.5664C185.254 62.4674 183.789 69.7266 183.789 77.3438C183.789 84.9609 185.254 92.2526 188.184 99.2188C191.178 106.12 195.182 112.109 200.195 117.188C205.273 122.201 211.263 126.204 218.164 129.199C225.13 132.129 232.422 133.594 240.039 133.594C247.656 133.594 254.915 132.129 261.816 129.199C268.783 126.204 274.772 122.201 279.785 117.188C284.863 112.109 288.867 106.12 291.797 99.2188C294.792 92.2526 296.289 84.9609 296.289 77.3438C296.289 69.7266 294.792 62.4674 291.797 55.5664C288.867 48.6003 284.863 42.6107 279.785 37.5977C274.772 32.5195 268.783 28.5156 261.816 25.5859C254.915 22.5911 247.656 21.0938 240.039 21.0938C232.422 21.0938 225.13 22.5911 218.164 25.5859C211.263 28.5156 205.273 32.5195 200.195 37.5977C195.182 42.6107 191.178 48.6003 188.184 55.5664ZM181.738 101.953C178.418 94.1406 176.758 85.9375 176.758 77.3438C176.758 68.75 178.418 60.5469 181.738 52.7344C185.124 44.9219 189.616 38.2161 195.215 32.6172C200.879 26.9531 207.617 22.4609 215.43 19.1406C223.242 15.7552 231.445 14.0625 240.039 14.0625C248.633 14.0625 256.836 15.7552 264.648 19.1406C272.461 22.4609 279.167 26.9531 284.766 32.6172C290.43 38.2161 294.922 44.9219 298.242 52.7344C301.628 60.5469 303.32 68.75 303.32 77.3438C303.32 85.9375 301.628 94.1406 298.242 101.953C294.922 109.766 290.43 116.504 284.766 122.168C279.167 127.767 272.461 132.259 264.648 135.645C256.836 138.965 248.633 140.625 240.039 140.625C231.445 140.625 223.242 138.965 215.43 135.645C207.617 132.259 200.879 127.767 195.215 122.168C189.616 116.504 185.124 109.766 181.738 101.953ZM175.293 50.0977C171.582 58.7565 169.727 67.8385 169.727 77.3438C169.727 86.849 171.582 95.9635 175.293 104.688C179.004 113.346 183.984 120.833 190.234 127.148C196.549 133.398 204.036 138.379 212.695 142.09C221.419 145.801 230.534 147.656 240.039 147.656C249.544 147.656 258.626 145.801 267.285 142.09C276.009 138.379 283.496 133.398 289.746 127.148C296.061 120.833 301.074 113.346 304.785 104.688C308.496 95.9635 310.352 86.849 310.352 77.3438C310.352 67.8385 308.496 58.7565 304.785 50.0977C301.074 41.3737 296.061 33.8867 289.746 27.6367C283.496 21.3216 276.009 16.3086 267.285 12.5977C258.626 8.88672 249.544 7.03125 240.039 7.03125C230.534 7.03125 221.419 8.88672 212.695 12.5977C204.036 16.3086 196.549 21.3216 190.234 27.6367C183.984 33.8867 179.004 41.3737 175.293 50.0977ZM168.848 107.422C164.746 97.8516 162.695 87.8255 162.695 77.3438C162.695 66.862 164.746 56.8685 168.848 47.3633C172.949 37.793 178.451 29.5573 185.352 22.6562C192.253 15.7552 200.456 10.2539 209.961 6.15234C219.531 2.05078 229.557 0 240.039 0C250.521 0 260.514 2.05078 270.02 6.15234C279.59 10.2539 287.826 15.7552 294.727 22.6562C301.628 29.5573 307.129 37.793 311.23 47.3633C315.332 56.8685 317.383 66.862 317.383 77.3438C317.383 87.8255 315.332 97.8516 311.23 107.422C307.129 116.927 301.628 125.13 294.727 132.031C287.826 138.932 279.59 144.434 270.02 148.535C260.514 152.637 250.521 154.688 240.039 154.688C229.557 154.688 219.531 152.637 209.961 148.535C200.456 144.434 192.253 138.932 185.352 132.031C178.451 125.13 172.949 116.927 168.848 107.422Z" fill="black"/>
<path d="M53.125 80.4688H95.5078C101.107 80.4688 105.859 78.7109 109.766 75.1953C113.672 71.6797 115.625 66.7318 115.625 60.3516C115.625 55.6641 113.574 51.4648 109.473 47.7539C105.436 44.043 100.781 42.1875 95.5078 42.1875H35.1562V147.656H28.125V35.1562H95.5078C102.734 35.1562 109.049 37.6953 114.453 42.7734C119.922 47.8516 122.656 53.7109 122.656 60.3516C122.656 68.6198 120.02 75.2279 114.746 80.1758C109.473 85.0586 103.06 87.5 95.5078 87.5H53.125V80.4688ZM53.125 94.5312H95.5078C104.883 94.5312 112.923 91.3411 119.629 84.9609C126.335 78.5807 129.688 70.3776 129.688 60.3516C129.688 51.8229 126.27 44.3359 119.434 37.8906C112.598 31.3802 104.622 28.125 95.5078 28.125H21.0938V147.656H14.0625V21.0938H95.5078C106.576 21.0938 116.211 25.0326 124.414 32.9102C132.617 40.7227 136.719 49.8698 136.719 60.3516C136.719 72.0703 132.65 81.8685 124.512 89.7461C116.439 97.6237 106.771 101.562 95.5078 101.562H53.125V94.5312ZM53.125 108.594H95.5078C104.167 108.594 112.174 106.51 119.531 102.344C126.888 98.1771 132.747 92.3828 137.109 84.9609C141.536 77.5391 143.75 69.3359 143.75 60.3516C143.75 52.2135 141.569 44.5964 137.207 37.5C132.845 30.3385 126.921 24.6419 119.434 20.4102C112.012 16.1784 104.036 14.0625 95.5078 14.0625H7.03125V147.656H0V7.03125H95.5078C102.865 7.03125 109.928 8.49609 116.699 11.4258C123.535 14.2904 129.427 18.1315 134.375 22.9492C139.323 27.7018 143.294 33.3659 146.289 39.9414C149.284 46.5169 150.781 53.3203 150.781 60.3516C150.781 71.7448 148.177 81.7057 142.969 90.2344C137.76 98.6979 130.762 105.143 121.973 109.57L136.719 147.656H129.199L115.234 112.402C113.477 112.988 111.426 113.574 109.082 114.16L122.266 147.656H114.746L101.855 115.332C99.8372 115.527 97.7214 115.625 95.5078 115.625L107.91 147.656H100.488L88.1836 115.625H81.8359L93.6523 147.656H86.2305L74.3164 115.625H53.125V108.594ZM49.2188 147.656H42.1875V49.2188H95.5078C99.1536 49.2188 102.246 50.3255 104.785 52.5391C107.324 54.6875 108.594 57.2917 108.594 60.3516C108.594 69.0755 104.232 73.4375 95.5078 73.4375H53.125V66.4062H95.5078C99.5443 66.4062 101.562 64.388 101.562 60.3516C101.562 59.2448 100.944 58.3008 99.707 57.5195C98.5352 56.6732 97.1354 56.25 95.5078 56.25H49.2188V147.656Z" fill="black"/>
</svg>
