<svg width="887" height="149" viewBox="0 0 887 149" fill="none" xmlns="http://www.w3.org/2000/svg">
<path d="M828.613 77.832H817.48C803.809 77.832 793.294 75.0651 785.938 69.5312C778.581 63.9323 774.902 56.25 774.902 46.4844C774.902 37.3698 779.232 29.7852 787.891 23.7305C796.549 17.6107 808.691 14.5508 824.316 14.5508C834.733 14.5508 844.434 15.9831 853.418 18.8477C862.467 21.7122 869.987 25.7487 875.977 30.957L870.508 35.3516C865.169 30.9896 858.464 27.6042 850.391 25.1953C842.318 22.7865 833.626 21.582 824.316 21.582C810.579 21.582 800.065 23.9258 792.773 28.6133C785.547 33.3008 781.934 39.2578 781.934 46.4844C781.934 54.2969 784.896 60.319 790.82 64.5508C796.81 68.7174 805.697 70.8008 817.48 70.8008H828.223C842.09 70.8008 852.702 73.6003 860.059 79.1992C867.48 84.7331 871.191 92.3828 871.191 102.148C871.191 111.263 866.862 118.88 858.203 125C849.544 131.055 837.402 134.082 821.777 134.082C811.361 134.082 801.628 132.65 792.578 129.785C783.594 126.921 776.107 122.884 770.117 117.676L775.586 113.281C780.924 117.643 787.63 121.029 795.703 123.438C803.776 125.846 812.467 127.051 821.777 127.051C835.514 127.051 845.996 124.707 853.223 120.02C860.514 115.332 864.16 109.375 864.16 102.148C864.16 94.3359 861.165 88.3464 855.176 84.1797C849.251 79.9479 840.397 77.832 828.613 77.832ZM828.613 91.8945H817.48C799.382 91.8945 785.417 87.793 775.586 79.5898C765.755 71.3216 760.84 60.2865 760.84 46.4844C760.84 40.1693 762.24 34.2448 765.039 28.7109C767.839 23.1771 771.842 18.3268 777.051 14.1602C782.324 9.92839 789.03 6.60807 797.168 4.19922C805.306 1.72526 814.355 0.488281 824.316 0.488281C836.882 0.488281 848.633 2.40885 859.57 6.25C870.508 10.026 879.622 15.332 886.914 22.168L881.25 26.3672C874.609 20.3776 866.309 15.7552 856.348 12.5C846.387 9.17969 835.71 7.51953 824.316 7.51953C806.738 7.51953 792.936 11.2305 782.91 18.6523C772.884 26.0742 767.871 35.3516 767.871 46.4844C767.871 58.2682 772.168 67.6107 780.762 74.5117C789.355 81.4128 801.595 84.8633 817.48 84.8633H828.223C847.493 84.8633 857.129 90.625 857.129 102.148C857.129 107.357 854.167 111.654 848.242 115.039C842.383 118.359 833.561 120.02 821.777 120.02C813.509 120.02 805.827 119.076 798.73 117.188C791.634 115.234 785.775 112.467 781.152 108.887L786.719 104.59C794.857 110.189 806.543 112.988 821.777 112.988C831.543 112.988 838.704 111.979 843.262 109.961C847.819 107.943 850.098 105.339 850.098 102.148C850.098 98.4375 848.503 95.8008 845.312 94.2383C842.122 92.6758 836.556 91.8945 828.613 91.8945ZM828.613 63.7695H817.48C798.47 63.7695 788.965 58.0078 788.965 46.4844C788.965 41.276 791.895 37.0117 797.754 33.6914C803.678 30.306 812.533 28.6133 824.316 28.6133C832.585 28.6133 840.267 29.5898 847.363 31.543C854.46 33.431 860.319 36.1654 864.941 39.7461L859.375 44.043C851.237 38.444 839.551 35.6445 824.316 35.6445C814.551 35.6445 807.389 36.6536 802.832 38.6719C798.275 40.6901 795.996 43.2943 795.996 46.4844C795.996 50.1953 797.591 52.832 800.781 54.3945C803.971 55.957 809.538 56.7383 817.48 56.7383H828.613C846.712 56.7383 860.677 60.8724 870.508 69.1406C880.339 77.3438 885.254 88.3464 885.254 102.148C885.254 108.464 883.854 114.388 881.055 119.922C878.255 125.456 874.219 130.339 868.945 134.57C863.737 138.737 857.064 142.057 848.926 144.531C840.788 146.94 831.738 148.145 821.777 148.145C809.212 148.145 797.461 146.257 786.523 142.48C775.586 138.639 766.471 133.301 759.18 126.465L764.844 122.266C771.484 128.255 779.785 132.91 789.746 136.23C799.707 139.486 810.384 141.113 821.777 141.113C839.355 141.113 853.158 137.402 863.184 129.98C873.21 122.559 878.223 113.281 878.223 102.148C878.223 90.3646 873.926 81.0221 865.332 74.1211C856.738 67.2201 844.499 63.7695 828.613 63.7695Z" fill="black"/>
<path d="M665.723 144.727H658.691V4.10156H665.723V144.727ZM651.66 144.727H644.629V4.10156H651.66V144.727ZM637.598 144.727H630.566V4.10156H637.598V144.727ZM679.785 109.57H747.07V116.602H679.785V123.633H747.07V130.664H679.785V137.695H747.07V144.727H672.754V4.10156H747.07V11.1328H679.785V18.1641H747.07V25.1953H679.785V32.2266H747.07V39.2578H679.785V56.7383H743.164V63.7695H679.785V70.8008H743.164V77.832H679.785V84.8633H743.164V91.8945H679.785V109.57Z" fill="black"/>
<path d="M528.711 78.5156H558.496C564.355 78.5156 569.336 76.7578 573.438 73.2422C577.539 69.7266 579.59 64.7786 579.59 58.3984C579.59 53.4505 577.441 49.0234 573.145 45.1172C568.848 41.2109 563.965 39.2578 558.496 39.2578H509.277V144.727H502.246V32.2266H558.496C565.983 32.2266 572.526 34.8633 578.125 40.1367C583.789 45.4102 586.621 51.4974 586.621 58.3984C586.621 66.6667 583.887 73.2747 578.418 78.2227C572.949 83.1055 566.309 85.5469 558.496 85.5469H528.711V78.5156ZM528.711 92.5781H558.496C568.132 92.5781 576.4 89.388 583.301 83.0078C590.202 76.6276 593.652 68.4245 593.652 58.3984C593.652 49.6094 590.137 41.8945 583.105 35.2539C576.074 28.5482 567.871 25.1953 558.496 25.1953H495.215V144.727H488.184V18.1641H558.496C569.824 18.1641 579.688 22.2005 588.086 30.2734C596.484 38.2812 600.684 47.6562 600.684 58.3984C600.684 70.1172 596.517 79.9154 588.184 87.793C579.915 95.6706 570.02 99.6094 558.496 99.6094H528.711V92.5781ZM528.711 106.641H558.496C567.285 106.641 575.423 104.557 582.91 100.391C590.462 96.224 596.484 90.4297 600.977 83.0078C605.469 75.5859 607.715 67.3828 607.715 58.3984C607.715 50.1302 605.469 42.3503 600.977 35.0586C596.549 27.7669 590.527 21.9727 582.91 17.6758C575.358 13.3138 567.22 11.1328 558.496 11.1328H481.152V144.727H474.121V4.10156H558.496C565.918 4.10156 573.079 5.56641 579.98 8.49609C586.947 11.4258 592.969 15.3646 598.047 20.3125C603.125 25.1953 607.161 30.9896 610.156 37.6953C613.216 44.3359 614.746 51.237 614.746 58.3984C614.746 66.7969 613.249 74.5117 610.254 81.543C607.259 88.5742 603.19 94.4336 598.047 99.1211C592.904 103.743 586.914 107.324 580.078 109.863C573.307 112.402 566.113 113.672 558.496 113.672H528.711V106.641ZM523.34 144.727H516.309V46.2891H558.496C562.337 46.2891 565.625 47.4935 568.359 49.9023C571.159 52.2461 572.559 55.0781 572.559 58.3984C572.559 67.1224 567.871 71.4844 558.496 71.4844H528.711V64.4531H558.496C563.184 64.4531 565.527 62.4349 565.527 58.3984C565.527 56.9661 564.844 55.7617 563.477 54.7852C562.109 53.8086 560.449 53.3203 558.496 53.3203H523.34V144.727Z" fill="black"/>
<path d="M407.52 75.3906C407.52 67.0573 404.948 60.612 399.805 56.0547C394.661 51.4974 387.858 49.2188 379.395 49.2188C372.233 49.2188 366.081 51.6927 360.938 56.6406C355.794 61.5885 353.223 67.513 353.223 74.4141C353.223 78.3203 353.743 81.8359 354.785 84.9609C355.827 88.0208 357.227 90.5924 358.984 92.6758C360.807 94.694 362.956 96.3867 365.43 97.7539C367.904 99.056 370.475 100 373.145 100.586C375.879 101.172 378.776 101.465 381.836 101.465C389.258 101.465 396.029 99.6419 402.148 95.9961V103.027C395.833 106.348 389.03 108.008 381.738 108.008C377.051 108.008 372.624 107.389 368.457 106.152C364.355 104.85 360.612 102.93 357.227 100.391C353.841 97.7865 351.139 94.2708 349.121 89.8438C347.168 85.3516 346.191 80.2083 346.191 74.4141C346.191 65.4297 349.349 57.8125 355.664 51.5625C361.979 45.3125 369.889 42.1875 379.395 42.1875C389.876 42.1875 398.34 45.1497 404.785 51.0742C411.296 56.9336 414.551 65.0391 414.551 75.3906V144.727H407.52V75.3906ZM428.613 75.3906V144.727H421.582V75.3906C421.582 63.0859 417.643 53.3203 409.766 46.0938C401.888 38.8021 391.764 35.1562 379.395 35.1562C367.936 35.1562 358.366 38.9648 350.684 46.582C343.001 54.1992 339.16 63.4766 339.16 74.4141C339.16 81.0547 340.299 87.0117 342.578 92.2852C344.922 97.5586 348.079 101.79 352.051 104.98C356.022 108.171 360.449 110.612 365.332 112.305C370.28 113.932 375.488 114.746 380.957 114.746C388.379 114.746 395.443 113.021 402.148 109.57V116.992C395.117 119.922 388.021 121.387 380.859 121.387C374.414 121.387 368.294 120.41 362.5 118.457C356.706 116.439 351.53 113.542 346.973 109.766C342.415 105.924 338.802 100.977 336.133 94.9219C333.464 88.8021 332.129 81.9661 332.129 74.4141C332.129 61.5885 336.654 50.6836 345.703 41.6992C354.818 32.6497 366.048 28.125 379.395 28.125C388.77 28.125 397.168 30.0456 404.59 33.8867C412.012 37.6628 417.871 43.1641 422.168 50.3906C426.465 57.6172 428.613 65.9505 428.613 75.3906ZM442.676 75.3906V144.727H435.645V75.3906C435.645 64.6484 433.171 55.1432 428.223 46.875C423.34 38.5417 416.634 32.1615 408.105 27.7344C399.577 23.3073 390.007 21.0938 379.395 21.0938C369.303 21.0938 360.091 23.5026 351.758 28.3203C343.424 33.0729 336.882 39.5182 332.129 47.6562C327.441 55.7943 325.098 64.7135 325.098 74.4141C325.098 82.7474 326.628 90.3646 329.688 97.2656C332.747 104.102 336.849 109.733 341.992 114.16C347.201 118.587 353.092 122.038 359.668 124.512C366.309 126.921 373.242 128.125 380.469 128.125C387.826 128.125 395.052 126.595 402.148 123.535V130.664C394.727 133.464 387.435 134.863 380.273 134.863C369.01 134.863 358.659 132.324 349.219 127.246C339.779 122.168 332.227 114.974 326.562 105.664C320.898 96.3542 318.066 85.9375 318.066 74.4141C318.066 66.2109 319.629 58.3984 322.754 50.9766C325.944 43.5547 330.241 37.1419 335.645 31.7383C341.048 26.3346 347.559 22.0378 355.176 18.8477C362.793 15.6576 370.866 14.0625 379.395 14.0625C391.309 14.0625 402.051 16.6016 411.621 21.6797C421.257 26.7578 428.841 33.9844 434.375 43.3594C439.909 52.7344 442.676 63.4115 442.676 75.3906ZM456.738 75.3906V144.727H449.707V75.3906C449.707 62.1094 446.615 50.2604 440.43 39.8438C434.245 29.362 425.814 21.2891 415.137 15.625C404.46 9.89583 392.546 7.03125 379.395 7.03125C366.764 7.03125 355.208 10.0586 344.727 16.1133C334.245 22.168 326.009 30.3711 320.02 40.7227C314.03 51.0091 311.035 62.2396 311.035 74.4141C311.035 82.4219 312.305 90.0391 314.844 97.2656C317.448 104.427 320.964 110.71 325.391 116.113C329.883 121.452 335.026 126.074 340.82 129.98C346.68 133.887 352.962 136.849 359.668 138.867C366.439 140.885 373.307 141.895 380.273 141.895C387.956 141.895 395.247 140.43 402.148 137.5V144.727C394.922 147.266 387.5 148.535 379.883 148.535C372.005 148.535 364.323 147.428 356.836 145.215C349.414 143.001 342.513 139.746 336.133 135.449C329.818 131.087 324.251 125.977 319.434 120.117C314.616 114.193 310.84 107.292 308.105 99.4141C305.371 91.5365 304.004 83.2031 304.004 74.4141C304.004 64.3229 305.892 54.7201 309.668 45.6055C313.509 36.4258 318.717 28.5156 325.293 21.875C331.934 15.1693 339.941 9.86328 349.316 5.95703C358.757 1.98568 368.783 0 379.395 0C390.202 0 400.358 1.82292 409.863 5.46875C419.368 9.11458 427.572 14.1927 434.473 20.7031C441.374 27.1484 446.81 35.0911 450.781 44.5312C454.753 53.9714 456.738 64.2578 456.738 75.3906Z" fill="black"/>
<path d="M282.227 4.10156H289.258V144.727H282.227V4.10156ZM141.504 4.10156H148.535V144.727H141.504V4.10156ZM268.164 4.10156H275.195V144.727H268.164V4.10156ZM254.102 4.10156H261.133V144.727H254.102V4.10156ZM240.039 4.10156H247.07V144.727H240.039V88.4766H190.723V144.727H183.691V4.10156H190.723V53.3203H240.039V4.10156ZM169.629 4.10156H176.66V144.727H169.629V4.10156ZM155.566 4.10156H162.598V144.727H155.566V4.10156ZM240.039 81.4453V74.4141H190.723V81.4453H240.039ZM240.039 67.3828V60.3516H190.723V67.3828H240.039Z" fill="black"/>
<path d="M69.4336 77.832H58.3008C44.6289 77.832 34.1146 75.0651 26.7578 69.5312C19.401 63.9323 15.7227 56.25 15.7227 46.4844C15.7227 37.3698 20.0521 29.7852 28.7109 23.7305C37.3698 17.6107 49.5117 14.5508 65.1367 14.5508C75.5534 14.5508 85.2539 15.9831 94.2383 18.8477C103.288 21.7122 110.807 25.7487 116.797 30.957L111.328 35.3516C105.99 30.9896 99.2839 27.6042 91.2109 25.1953C83.138 22.7865 74.4466 21.582 65.1367 21.582C51.3997 21.582 40.8854 23.9258 33.5938 28.6133C26.3672 33.3008 22.7539 39.2578 22.7539 46.4844C22.7539 54.2969 25.7161 60.319 31.6406 64.5508C37.6302 68.7174 46.5169 70.8008 58.3008 70.8008H69.043C82.9102 70.8008 93.5221 73.6003 100.879 79.1992C108.301 84.7331 112.012 92.3828 112.012 102.148C112.012 111.263 107.682 118.88 99.0234 125C90.3646 131.055 78.2227 134.082 62.5977 134.082C52.181 134.082 42.4479 132.65 33.3984 129.785C24.4141 126.921 16.9271 122.884 10.9375 117.676L16.4062 113.281C21.7448 117.643 28.4505 121.029 36.5234 123.438C44.5964 125.846 53.2878 127.051 62.5977 127.051C76.3346 127.051 86.8164 124.707 94.043 120.02C101.335 115.332 104.98 109.375 104.98 102.148C104.98 94.3359 101.986 88.3464 95.9961 84.1797C90.0716 79.9479 81.2174 77.832 69.4336 77.832ZM69.4336 91.8945H58.3008C40.2018 91.8945 26.237 87.793 16.4062 79.5898C6.57552 71.3216 1.66016 60.2865 1.66016 46.4844C1.66016 40.1693 3.0599 34.2448 5.85938 28.7109C8.65885 23.1771 12.6628 18.3268 17.8711 14.1602C23.1445 9.92839 29.8503 6.60807 37.9883 4.19922C46.1263 1.72526 55.1758 0.488281 65.1367 0.488281C77.7018 0.488281 89.4531 2.40885 100.391 6.25C111.328 10.026 120.443 15.332 127.734 22.168L122.07 26.3672C115.43 20.3776 107.129 15.7552 97.168 12.5C87.207 9.17969 76.5299 7.51953 65.1367 7.51953C47.5586 7.51953 33.7565 11.2305 23.7305 18.6523C13.7044 26.0742 8.69141 35.3516 8.69141 46.4844C8.69141 58.2682 12.9883 67.6107 21.582 74.5117C30.1758 81.4128 42.4154 84.8633 58.3008 84.8633H69.043C88.3138 84.8633 97.9492 90.625 97.9492 102.148C97.9492 107.357 94.987 111.654 89.0625 115.039C83.2031 118.359 74.3815 120.02 62.5977 120.02C54.3294 120.02 46.6471 119.076 39.5508 117.188C32.4544 115.234 26.5951 112.467 21.9727 108.887L27.5391 104.59C35.6771 110.189 47.3633 112.988 62.5977 112.988C72.3633 112.988 79.5247 111.979 84.082 109.961C88.6393 107.943 90.918 105.339 90.918 102.148C90.918 98.4375 89.3229 95.8008 86.1328 94.2383C82.9427 92.6758 77.3763 91.8945 69.4336 91.8945ZM69.4336 63.7695H58.3008C39.2904 63.7695 29.7852 58.0078 29.7852 46.4844C29.7852 41.276 32.7148 37.0117 38.5742 33.6914C44.4987 30.306 53.3529 28.6133 65.1367 28.6133C73.4049 28.6133 81.0872 29.5898 88.1836 31.543C95.2799 33.431 101.139 36.1654 105.762 39.7461L100.195 44.043C92.0573 38.444 80.3711 35.6445 65.1367 35.6445C55.3711 35.6445 48.2096 36.6536 43.6523 38.6719C39.0951 40.6901 36.8164 43.2943 36.8164 46.4844C36.8164 50.1953 38.4115 52.832 41.6016 54.3945C44.7917 55.957 50.3581 56.7383 58.3008 56.7383H69.4336C87.5326 56.7383 101.497 60.8724 111.328 69.1406C121.159 77.3438 126.074 88.3464 126.074 102.148C126.074 108.464 124.674 114.388 121.875 119.922C119.076 125.456 115.039 130.339 109.766 134.57C104.557 138.737 97.8841 142.057 89.7461 144.531C81.6081 146.94 72.5586 148.145 62.5977 148.145C50.0326 148.145 38.2812 146.257 27.3438 142.48C16.4062 138.639 7.29167 133.301 0 126.465L5.66406 122.266C12.3047 128.255 20.6055 132.91 30.5664 136.23C40.5273 139.486 51.2044 141.113 62.5977 141.113C80.1758 141.113 93.9779 137.402 104.004 129.98C114.03 122.559 119.043 113.281 119.043 102.148C119.043 90.3646 114.746 81.0221 106.152 74.1211C97.5586 67.2201 85.319 63.7695 69.4336 63.7695Z" fill="black"/>
</svg>
