<svg width="673" height="238" viewBox="0 0 673 238" fill="none" xmlns="http://www.w3.org/2000/svg">
<path d="M582.601 60.3027C582.601 66.1003 581.585 71.1784 579.554 75.5371C577.565 79.8535 574.814 83.4505 571.302 86.3281C567.832 89.2057 563.748 91.3639 559.051 92.8027C554.396 94.2415 549.381 94.9609 544.007 94.9609C541.933 94.9609 539.648 94.6859 537.151 94.1357C534.697 93.5856 532.2 92.9085 529.661 92.1045C527.122 91.2581 524.668 90.3695 522.298 89.4385C519.97 88.4652 517.897 87.5553 516.077 86.709L518.87 60.5566C522.467 62.7148 526.445 64.3652 530.804 65.5078C535.205 66.6081 539.521 67.1582 543.753 67.1582C544.557 67.1582 545.53 67.137 546.673 67.0947C547.815 67.0101 548.895 66.8197 549.91 66.5234C550.968 66.1849 551.857 65.6982 552.576 65.0635C553.296 64.4287 553.655 63.5189 553.655 62.334C553.655 61.5299 553.401 60.8529 552.894 60.3027C552.386 59.7103 551.73 59.2448 550.926 58.9062C550.122 58.5254 549.212 58.2503 548.196 58.0811C547.181 57.8695 546.186 57.7214 545.213 57.6367C544.24 57.5521 543.33 57.5098 542.483 57.5098C541.637 57.5098 540.96 57.5098 540.452 57.5098C536.813 57.5098 533.491 56.875 530.486 55.6055C527.524 54.3359 524.964 52.5798 522.806 50.3369C520.69 48.0518 519.039 45.3646 517.854 42.2754C516.67 39.1439 516.077 35.7585 516.077 32.1191C516.077 27.1257 517.072 22.6611 519.061 18.7256C521.092 14.7477 523.779 11.3835 527.122 8.63281C530.507 5.83984 534.38 3.7028 538.738 2.22168C543.097 0.74056 547.604 0 552.259 0C554.332 0 556.469 0.0846354 558.67 0.253906C560.87 0.380859 563.05 0.634766 565.208 1.01562C567.409 1.39648 569.546 1.88314 571.619 2.47559C573.693 3.06803 575.66 3.80859 577.522 4.69727L575.11 30.4688C572.233 29.4954 569.207 28.6914 566.033 28.0566C562.902 27.3796 559.834 27.041 556.829 27.041C556.279 27.041 555.56 27.0622 554.671 27.1045C553.825 27.1045 552.915 27.168 551.941 27.2949C551.01 27.3796 550.058 27.5277 549.085 27.7393C548.112 27.9508 547.244 28.2471 546.482 28.6279C545.721 28.9665 545.107 29.432 544.642 30.0244C544.176 30.6169 543.965 31.3151 544.007 32.1191C544.049 33.0501 544.388 33.8118 545.022 34.4043C545.7 34.9544 546.546 35.3988 547.562 35.7373C548.619 36.0335 549.762 36.2451 550.989 36.3721C552.259 36.499 553.507 36.5837 554.734 36.626C555.962 36.626 557.104 36.626 558.162 36.626C559.22 36.5837 560.088 36.6048 560.765 36.6895C564.15 36.901 567.197 37.6204 569.905 38.8477C572.614 40.0749 574.899 41.7041 576.761 43.7354C578.665 45.7666 580.104 48.1999 581.077 51.0352C582.093 53.8281 582.601 56.9173 582.601 60.3027Z" fill="black"/>
<path d="M504.979 2.53906C504.725 6.51693 504.492 10.4525 504.281 14.3457C504.069 18.2389 503.794 22.1745 503.456 26.1523L476.542 27.5488L475.907 35.5469H494.823L493.426 55.2246L474.383 55.8594L473.749 65.127H489.491H500.663C500.409 69.7819 500.134 74.4157 499.837 79.0283C499.583 83.5986 499.351 88.1901 499.139 92.8027L444.422 94.0723L446.454 2.53906H504.979Z" fill="black"/>
<path d="M430.976 33.0078C430.976 37.1126 430.362 40.752 429.135 43.9258C427.908 47.0996 426.215 49.8714 424.057 52.2412C421.941 54.611 419.444 56.6211 416.566 58.2715C413.689 59.9219 410.6 61.276 407.299 62.334C404.04 63.3496 400.655 64.1113 397.143 64.6191C393.63 65.0846 390.181 65.3385 386.796 65.3809V94.9609H357.216C357.216 85.2702 357.237 75.6217 357.279 66.0156C357.322 56.4095 357.385 46.7188 357.47 36.9434C357.554 31.7806 357.576 26.6178 357.533 21.4551C357.491 16.2923 357.597 11.0872 357.851 5.83984C363.267 4.23177 368.684 3.02572 374.101 2.22168C379.517 1.41764 385.103 1.01562 390.858 1.01562C394.117 1.01562 397.375 1.29069 400.634 1.84082C403.892 2.34863 407.003 3.17383 409.965 4.31641C412.969 5.45898 415.741 6.89779 418.28 8.63281C420.862 10.3255 423.083 12.3568 424.945 14.7266C426.807 17.0964 428.267 19.8047 429.325 22.8516C430.425 25.8561 430.976 29.2415 430.976 33.0078ZM402.792 35.166C402.792 32.4154 401.946 30.2783 400.253 28.7549C398.603 27.1891 396.444 26.4062 393.778 26.4062C392.89 26.4062 391.959 26.4909 390.985 26.6602C390.054 26.7871 389.166 26.9564 388.319 27.168L387.558 45.7031C388.15 45.7878 388.721 45.8301 389.271 45.8301C389.822 45.8301 390.393 45.8301 390.985 45.8301C392.509 45.8301 393.969 45.5762 395.365 45.0684C396.804 44.5605 398.074 43.8411 399.174 42.9102C400.274 41.9368 401.142 40.8154 401.776 39.5459C402.453 38.234 402.792 36.7741 402.792 35.166Z" fill="black"/>
<path d="M345.292 88.6133L313.808 92.6758L309.999 78.3301H295.526L292.353 92.6758L259.979 89.502L285.243 4.95117L320.536 3.17383L345.292 88.6133ZM307.714 58.9062L302.89 36.8164L298.192 58.9062H307.714Z" fill="black"/>
<path d="M248.818 94.0723L217.08 95.5957L216.826 66.2695H202.226L201.337 94.0723H172.9L175.312 4.82422L205.527 6.2207L203.623 51.7969H217.714L217.841 2.79297L246.787 3.55469L248.818 94.0723Z" fill="black"/>
<path d="M159.009 60.3027C159.009 66.1003 157.993 71.1784 155.962 75.5371C153.973 79.8535 151.222 83.4505 147.71 86.3281C144.24 89.2057 140.156 91.3639 135.459 92.8027C130.804 94.2415 125.789 94.9609 120.415 94.9609C118.341 94.9609 116.056 94.6859 113.56 94.1357C111.105 93.5856 108.608 92.9085 106.069 92.1045C103.53 91.2581 101.076 90.3695 98.7061 89.4385C96.3786 88.4652 94.305 87.5553 92.4854 86.709L95.2783 60.5566C98.8753 62.7148 102.853 64.3652 107.212 65.5078C111.613 66.6081 115.929 67.1582 120.161 67.1582C120.965 67.1582 121.938 67.137 123.081 67.0947C124.224 67.0101 125.303 66.8197 126.318 66.5234C127.376 66.1849 128.265 65.6982 128.984 65.0635C129.704 64.4287 130.063 63.5189 130.063 62.334C130.063 61.5299 129.81 60.8529 129.302 60.3027C128.794 59.7103 128.138 59.2448 127.334 58.9062C126.53 58.5254 125.62 58.2503 124.604 58.0811C123.589 57.8695 122.594 57.7214 121.621 57.6367C120.648 57.5521 119.738 57.5098 118.892 57.5098C118.045 57.5098 117.368 57.5098 116.86 57.5098C113.221 57.5098 109.899 56.875 106.895 55.6055C103.932 54.3359 101.372 52.5798 99.2139 50.3369C97.098 48.0518 95.4476 45.3646 94.2627 42.2754C93.0778 39.1439 92.4854 35.7585 92.4854 32.1191C92.4854 27.1257 93.4798 22.6611 95.4688 18.7256C97.5 14.7477 100.187 11.3835 103.53 8.63281C106.916 5.83984 110.788 3.7028 115.146 2.22168C119.505 0.74056 124.012 0 128.667 0C130.741 0 132.878 0.0846354 135.078 0.253906C137.279 0.380859 139.458 0.634766 141.616 1.01562C143.817 1.39648 145.954 1.88314 148.027 2.47559C150.101 3.06803 152.069 3.80859 153.931 4.69727L151.519 30.4688C148.641 29.4954 145.615 28.6914 142.441 28.0566C139.31 27.3796 136.242 27.041 133.237 27.041C132.687 27.041 131.968 27.0622 131.079 27.1045C130.233 27.1045 129.323 27.168 128.35 27.2949C127.419 27.3796 126.466 27.5277 125.493 27.7393C124.52 27.9508 123.652 28.2471 122.891 28.6279C122.129 28.9665 121.515 29.432 121.05 30.0244C120.584 30.6169 120.373 31.3151 120.415 32.1191C120.457 33.0501 120.796 33.8118 121.431 34.4043C122.108 34.9544 122.954 35.3988 123.97 35.7373C125.028 36.0335 126.17 36.2451 127.397 36.3721C128.667 36.499 129.915 36.5837 131.143 36.626C132.37 36.626 133.512 36.626 134.57 36.626C135.628 36.5837 136.496 36.6048 137.173 36.6895C140.558 36.901 143.605 37.6204 146.313 38.8477C149.022 40.0749 151.307 41.7041 153.169 43.7354C155.073 45.7666 156.512 48.1999 157.485 51.0352C158.501 53.8281 159.009 56.9173 159.009 60.3027Z" fill="black"/>
<path d="M672.879 128.336L672.146 159.391L650.32 160.27L644.754 229.703L613.846 231.314L613.992 161.881L592.166 163.053L593.045 128.482L672.879 128.336Z" fill="black"/>
<path d="M579.36 181.363C579.36 185.807 578.848 190.104 577.822 194.254C576.797 198.355 575.308 202.213 573.354 205.826C571.45 209.439 569.106 212.76 566.323 215.787C563.589 218.766 560.488 221.329 557.021 223.478C553.604 225.626 549.868 227.311 545.815 228.531C541.763 229.703 537.466 230.289 532.925 230.289C528.53 230.289 524.331 229.728 520.327 228.604C516.372 227.481 512.661 225.919 509.194 223.917C505.728 221.866 502.578 219.425 499.746 216.593C496.963 213.712 494.57 210.538 492.568 207.071C490.615 203.556 489.077 199.796 487.954 195.792C486.88 191.788 486.343 187.613 486.343 183.268C486.343 179.02 486.855 174.869 487.881 170.816C488.906 166.715 490.371 162.857 492.275 159.244C494.229 155.631 496.572 152.311 499.307 149.283C502.041 146.256 505.093 143.644 508.462 141.446C511.88 139.249 515.566 137.54 519.521 136.319C523.477 135.099 527.651 134.488 532.046 134.488C539.126 134.488 545.571 135.587 551.382 137.784C557.241 139.981 562.222 143.131 566.323 147.232C570.474 151.285 573.672 156.217 575.918 162.027C578.213 167.789 579.36 174.234 579.36 181.363ZM546.841 183.268C546.841 181.168 546.523 179.142 545.889 177.188C545.303 175.187 544.424 173.429 543.252 171.915C542.08 170.353 540.615 169.107 538.857 168.18C537.148 167.203 535.171 166.715 532.925 166.715C530.63 166.715 528.579 167.13 526.772 167.96C524.966 168.79 523.403 169.938 522.085 171.402C520.815 172.818 519.839 174.503 519.155 176.456C518.472 178.36 518.13 180.387 518.13 182.535C518.13 184.586 518.423 186.637 519.009 188.688C519.595 190.738 520.474 192.594 521.646 194.254C522.817 195.914 524.258 197.257 525.967 198.282C527.725 199.308 529.751 199.82 532.046 199.82C534.341 199.82 536.392 199.381 538.198 198.502C540.054 197.574 541.616 196.354 542.886 194.84C544.155 193.277 545.132 191.495 545.815 189.493C546.499 187.491 546.841 185.416 546.841 183.268Z" fill="black"/>
<path d="M472.805 162.613C472.805 167.35 472.097 171.549 470.681 175.211C469.265 178.873 467.312 182.071 464.821 184.806C462.38 187.54 459.499 189.859 456.179 191.764C452.858 193.668 449.294 195.23 445.485 196.451C441.726 197.623 437.819 198.502 433.767 199.088C429.714 199.625 425.734 199.918 421.828 199.967V234.098H387.697C387.697 222.916 387.722 211.783 387.771 200.699C387.819 189.615 387.893 178.434 387.99 167.154C388.088 161.197 388.112 155.24 388.063 149.283C388.015 143.326 388.137 137.32 388.43 131.266C394.68 129.41 400.93 128.019 407.18 127.091C413.43 126.163 419.875 125.699 426.516 125.699C430.275 125.699 434.035 126.017 437.795 126.651C441.555 127.237 445.144 128.189 448.562 129.508C452.028 130.826 455.227 132.486 458.156 134.488C461.135 136.441 463.698 138.785 465.847 141.52C467.995 144.254 469.68 147.379 470.9 150.895C472.17 154.361 472.805 158.268 472.805 162.613ZM440.285 165.104C440.285 161.93 439.309 159.464 437.355 157.706C435.451 155.899 432.961 154.996 429.885 154.996C428.859 154.996 427.785 155.094 426.662 155.289C425.588 155.436 424.562 155.631 423.586 155.875L422.707 177.262C423.391 177.359 424.05 177.408 424.685 177.408C425.319 177.408 425.979 177.408 426.662 177.408C428.42 177.408 430.104 177.115 431.716 176.529C433.376 175.943 434.841 175.113 436.11 174.039C437.38 172.916 438.381 171.622 439.113 170.157C439.895 168.644 440.285 166.959 440.285 165.104Z" fill="black"/>
<path d="M376.21 128.189L340.907 176.969L370.644 228.824L336.659 234.83L314.394 203.189L313.222 236.295L282.753 237.467L285.097 125.26L319.228 127.164L316.591 160.27L339.296 125.26L376.21 128.189Z" fill="black"/>
<path d="M266.725 130.094L262.623 161.002C261.207 160.611 259.791 160.343 258.375 160.196C256.959 160.05 255.543 159.977 254.127 159.977C250.514 159.977 247.071 160.465 243.8 161.441C240.528 162.369 237.623 163.81 235.084 165.763C232.594 167.716 230.592 170.157 229.078 173.087C227.613 176.017 226.881 179.459 226.881 183.414C226.881 185.953 227.271 188.15 228.053 190.006C228.883 191.861 230.03 193.399 231.495 194.62C232.96 195.841 234.693 196.744 236.695 197.33C238.697 197.916 240.895 198.209 243.287 198.209C245.094 198.209 246.974 198.014 248.927 197.623C250.88 197.232 252.809 196.72 254.713 196.085C256.617 195.45 258.473 194.718 260.279 193.888C262.086 193.058 263.746 192.203 265.26 191.324L262.33 225.748C260.426 226.725 258.351 227.604 256.104 228.385C253.907 229.117 251.637 229.776 249.293 230.362C246.949 230.899 244.605 231.314 242.262 231.607C239.918 231.9 237.672 232.047 235.523 232.047C229.322 232.047 223.536 230.899 218.165 228.604C212.794 226.31 208.131 223.16 204.176 219.156C200.221 215.152 197.096 210.44 194.801 205.021C192.555 199.552 191.432 193.668 191.432 187.369C191.432 179.02 192.628 171.158 195.021 163.785C197.413 156.363 200.929 149.869 205.567 144.303C210.206 138.736 215.943 134.342 222.779 131.119C229.664 127.896 237.574 126.285 246.51 126.285C249.879 126.285 253.321 126.554 256.837 127.091C260.401 127.628 263.697 128.629 266.725 130.094Z" fill="black"/>
<path d="M182.508 226.773L146.18 231.461L141.785 214.908H125.086L121.424 231.461L84.0703 227.799L113.221 130.24L153.943 128.189L182.508 226.773ZM139.148 192.496L133.582 167.008L128.162 192.496H139.148Z" fill="black"/>
<path d="M74.707 172.721C74.707 175.602 74.707 178.458 74.707 181.29C74.707 184.122 74.5605 186.979 74.2676 189.859C73.7305 195.963 72.4121 201.749 70.3125 207.218C68.2129 212.638 65.3564 217.398 61.7432 221.5C58.1787 225.602 53.833 228.849 48.7061 231.241C43.5791 233.634 37.6953 234.83 31.0547 234.83C28.4668 234.83 25.7568 234.61 22.9248 234.171C20.1416 233.731 17.3584 233.072 14.5752 232.193C11.8408 231.314 9.2041 230.24 6.66504 228.971C4.1748 227.652 1.95312 226.139 0 224.43L4.54102 194.107C7.42188 196.891 10.6201 199.161 14.1357 200.919C17.6514 202.628 21.4844 203.482 25.6348 203.482C28.3203 203.482 30.5908 203.092 32.4463 202.311C34.3018 201.529 35.8398 200.455 37.0605 199.088C38.2812 197.721 39.2334 196.134 39.917 194.327C40.6494 192.472 41.1621 190.519 41.4551 188.468C41.7969 186.368 41.9922 184.22 42.041 182.022C42.1387 179.825 42.1875 177.652 42.1875 175.504C42.1875 167.74 41.7969 160.025 41.0156 152.359C40.2344 144.645 39.5508 136.93 38.9648 129.215L72.5098 127.018C73.9746 142.252 74.707 157.486 74.707 172.721Z" fill="black"/>
</svg>
